<?xml version="1.0" encoding="UTF-8"?> <svg xmlns:rdf="http://www.w3.org/1999/02/22-rdf-syntax-ns#" xmlns:dc="http://purl.org/dc/elements/1.1/" xmlns:cc="http://creativecommons.org/ns#" xmlns="http://www.w3.org/2000/svg" xmlns:xlink="http://www.w3.org/1999/xlink" version="1.1" id="Ebene_1" x="0px" y="0px" viewBox="0 0 117.2 20.7" style="enable-background:new 0 0 117.2 20.7;" xml:space="preserve"> <style type="text/css"> .st0{fill:#E1C557;stroke:#D5B240;stroke-width:1;stroke-miterlimit:5.7344;} .st1{display:none;} .st2{display:inline;fill:#E1C557;} .st3{display:inline;fill:none;} .st4{display:inline;} .st5{fill:#E5E5E5;} .st6{fill:none;stroke:#D5B240;stroke-width:1;stroke-miterlimit:5.7344;} </style> <path class="st0" d="M11,1.3l2.2,6.8l7.2,0l-5.8,4.2l2.2,6.8L11,15l-5.8,4.2l2.2-6.8L1.6,8.1l7.2,0L11,1.3z"></path> <g transform="translate(0 -1028.4)"> <path class="st0" d="M34.7,1029.7l2.2,6.8l7.2,0l-5.8,4.2l2.2,6.8l-5.8-4.2l-5.8,4.2l2.2-6.8l-5.8-4.2l7.2,0L34.7,1029.7z"></path> </g> <g transform="translate(0 -1028.4)"> <path class="st0" d="M58.4,1029.7l2.2,6.8l7.2,0l-5.8,4.2l2.2,6.8l-5.8-4.2l-5.8,4.2l2.2-6.8l-5.8-4.2l7.2,0L58.4,1029.7z"></path> </g> <g transform="translate(0 -1028.4)"> <path class="st0" d="M82.1,1029.7l2.2,6.8l7.2,0l-5.8,4.2l2.2,6.8l-5.8-4.2l-5.8,4.2l2.2-6.8l-5.8-4.2l7.2,0L82.1,1029.7z"></path> </g> <g id="_x31__x2F_2_00000157278467647513214320000001759615805445916071_" class="st1"> <path class="st2" d="M105.9,15.2l-5.8,4.2l2.2-6.8l-5.8-4.2l7.2,0l2.2-6.8"></path> <line class="st3" x1="105.9" y1="-0.2" x2="105.9" y2="20.7"></line> <g transform="translate(0 -1028.4)" class="st4"> <path class="st5" d="M105.9,1029.9l2.2,6.8l7.2,0l-5.8,4.2l2.2,6.8l-5.8-4.2"></path> </g> <g transform="translate(0 -1028.4)" class="st4"> <path class="st6" d="M105.9,1029.7l2.2,6.8l7.2,0l-5.8,4.2l2.2,6.8l-5.8-4.2l-5.8,4.2l2.2-6.8l-5.8-4.2l7.2,0L105.9,1029.7z"></path> </g> </g> <g id="_x35_" transform="translate(0 -1028.4)"> <path class="st0" d="M105.9,1029.8l2.2,6.8l7.2,0l-5.8,4.2l2.2,6.8l-5.8-4.2l-5.8,4.2l2.2-6.8l-5.8-4.2l7.2,0L105.9,1029.8z"></path> </g> </svg> 